<?xml version="1.0" ?><!DOCTYPE svg  PUBLIC '-//W3C//DTD SVG 1.1//EN'  'http://www.w3.org/Graphics/SVG/1.1/DTD/svg11.dtd'><svg enable-background="new 0 0 48 48" id="Layer_1" version="1.1" viewBox="0 0 48 48" xml:space="preserve" xmlns="http://www.w3.org/2000/svg" xmlns:xlink="http://www.w3.org/1999/xlink"><g><path d="M42,36.2H18.8c-3,0-5.5,2.5-5.5,5.7c0,3.1,2.4,5.7,5.5,5.7H42c3,0,5.5-2.5,5.5-5.7   C47.5,38.7,45.1,36.2,42,36.2z" fill="#010101"/><path d="M17.9,31.1h4.2v2.2h12.1v-2.2h7v-4.6V12.3H29.6l-2.7,14.2h-9V31.1z M31.5,14.6H39v9.2h-8.7L31.5,14.6z" fill="#010101"/><path d="M23,26.3l-4.2-15.9l-2.6,4.3l4.3,12.4c0.2,0.7,0.9,1,1.6,0.8C22.8,27.7,23.1,26.9,23,26.3z" fill="#010101"/><path d="M15.5,0.5l-4.4,4.6L3.8,23.9c-0.3,0.8,0,1.8,0.8,2.2l0,0c0.8,0.4,1.7,0.1,2.1-0.6L17.2,8.2l1-6.3L15.5,0.5z    M14.1,8.2c-0.9,0-1.6-0.8-1.6-1.7s0.7-1.7,1.6-1.7c0.9,0,1.6,0.8,1.6,1.7S15,8.2,14.1,8.2z" fill="#010101"/><path d="M5.3,28.8c-0.6,0-1.3-0.2-1.9-0.5c-0.7-0.4-1.2-0.9-1.6-1.5c-6.3,14.2,11.6,7.4,11.6,7.4l-5.2-6.7   C7.5,28.3,6.4,28.8,5.3,28.8z" fill="#010101"/></g></svg>